<svg xmlns="http://www.w3.org/2000/svg" viewBox="0 0 360.2 357.8"><path d="M192 84H24v210h126c3 0 5 3 5 6-1 3-3 5-6 5l-3 1H9c-6 0-9-2-9-6s3-6 9-6l3-1V84C3 82 0 78 0 69v-8c0-8 5-13 13-13h83V37l-9-5c-5-5-4-23 0-28 3-3 6-4 10-4h189c9 0 14 5 14 14v8c0 8-3 12-12 14v152c0 4-2 7-6 7s-6-3-6-7V36H108v12h93c10 0 14 3 15 14 4-7 10-9 17-8h13c7 0 12 5 12 12v18c0 7-5 12-12 12h-18c-7 0-12-5-12-12v-9c-3 5-6 9-12 9v56c0 4-3 6-6 6-3 1-6-2-6-6V84ZM96 24h192V12H96v12Zm108 36H12v12h192V60Zm24 24h18V66h-18v18Z"/><path d="M181 269a37845 37845 0 0 1-72-41c-7-5-9-11-5-19l41-70c4-7 11-9 18-5l189 109c9 5 10 11 5 20l-39 69c-5 8-11 9-20 5l-67-39-4-2-2 3-30 54c-3 3-5 5-9 5h-44c-8 0-10-5-7-11l43-74 3-4Zm125 58 42-72-192-111-42 72 192 111Zm-115-52-41 71h31c3 0 4-1 5-3l30-51 1-2-26-15ZM72 144H60c-7 0-12-5-12-12v-18c0-7 5-12 12-12h24c7 0 12 5 12 12v18c0 7-5 11-12 12H72Zm-12-30v18h24v-18H60ZM72 198H60c-7 0-12-5-12-13v-17c0-7 5-12 12-12h24c7 0 12 5 12 12v18c0 7-5 11-12 12H72Zm-12-12h24v-18H60v18ZM72 252H60c-7-1-12-6-12-12v-18c0-7 5-12 12-12h24c7 0 12 5 12 12v18c0 7-5 11-12 12H72Zm12-30H60v18h24v-18ZM237 150h-9c-7-1-12-5-12-12v-18c0-7 5-12 12-12h18c7 0 12 5 12 12v18c0 7-5 12-12 12h-9Zm9-12v-18h-18v18h18Z"/><path d="M156 114h-24v18l3 1c2 1 3 4 2 6 0 3-2 4-5 5-6 0-12-5-12-11v-20c0-6 5-11 12-11h24c7 0 12 5 12 12v7c0 3-3 6-6 6s-6-3-6-6v-7ZM162 217l6-11-19-11c-5-3-6-5-3-10l11-18c2-5 5-6 10-3l23 13c4 3 5 6 4 9-2 3-6 4-10 2l-19-11-6 10 13 8c12 6 13 7 6 19l-8 13c-2 4-5 5-10 2l-23-13c-4-3-5-6-4-9 2-3 6-4 10-1l19 11ZM210 230l-11-6-8 15-6 3c-2 1-4-1-5-3v-6l24-40c2-4 5-5 9-3l19 12c4 2 5 5 3 9l-23 40c-2 4-6 5-9 3s-4-5-2-9l9-15Zm-5-16 11 6 6-11-11-5-6 10ZM288 275l-6 11 13 7 4 3c2 2 2 5 0 7-2 3-4 4-7 2l-22-12c-3-2-3-5-2-8l25-42c1-3 4-4 7-2l21 12c3 2 4 5 2 8-1 3-5 4-8 2l-15-9-6 11 9 5c4 3 5 6 3 9s-5 4-9 2l-9-6ZM235 259l19 10 3 3c2 2 2 5 1 7-2 3-5 4-7 2l-28-15c-3-2-3-5-1-8l24-41c1-4 5-4 8-3 3 2 4 5 2 9l-18 31-3 5Z"/></svg>