<svg xmlns="http://www.w3.org/2000/svg" viewBox="0 0 314.8 408.8"><path d="m218 0 5 5 88 88c3 2 4 5 4 8v34c0 3-3 6-6 6s-5-2-6-6v-30h-76c-13 0-17-6-17-17V12H12v385h291V171c1-3 3-5 6-5s5 2 6 5v223c0 10-5 15-15 15H15c-11 0-15-5-15-15V16C0 9 2 3 9 0h209Zm4 21v72h71l-71-72Z"/><path d="M263 334v49c0 3 0 6-4 8-3 1-6 0-9-2l-18-15-18 15-5 2c-5 1-8-2-8-8v-49h-5c-9 1-17-7-16-16 1-4 0-6-4-8-9-4-12-15-6-23 2-3 2-5 0-9-6-8-3-19 6-23 4-1 5-3 4-7-1-10 8-18 18-17 3 1 5 0 6-3 5-11 15-13 24-7 3 2 5 2 8 0 9-6 19-4 24 7 1 3 3 4 6 3 10-1 18 6 18 16-1 5 0 7 4 9 9 3 12 14 6 22-2 3-2 6 0 9 6 8 3 19-6 23-3 1-5 2-5 6 1 13-5 19-18 18h-2Zm-64-91c-7 0-7 0-7 7 1 6-3 12-9 15-6 2-6 4-2 9s4 12 0 18c-4 5-3 6 2 8 7 3 10 10 9 17-1 5 1 6 6 6 8-1 13 2 17 10 1 4 3 4 7 2 7-5 13-5 20 0 4 2 5 2 7-2 4-8 9-11 17-10 5 0 7-1 6-6-1-7 2-14 9-17 5-2 6-3 2-8-4-6-4-13 0-19 4-4 3-6-2-8-6-3-10-9-9-16 0-6 0-7-6-6-8 0-13-3-17-10-2-4-3-5-7-2-7 5-13 5-20 0-4-3-5-3-8 2-3 7-8 10-15 10Zm14 132 10-9c9-6 9-6 18 0l10 9v-28c-6 2-12 0-17-4l-4 1c-5 4-11 5-17 3v28ZM91 148H63c-8 0-12-4-12-11l1-38c0-3 1-7 3-9l28-27c5-4 10-4 15 0l28 27c2 2 4 6 4 9v37c0 8-4 12-11 12H91Zm-16-12v-23c0-6 3-8 9-9h14c6 1 8 3 9 9v23h12v-20c-1-6 1-13-1-17-2-5-8-9-12-13L91 72 73 89c-8 6-11 13-10 23v24h12Zm12 0h8v-20h-8v20ZM157 195H43c-3-1-5-3-5-6s2-5 5-6h225l5 1c3 0 5 2 5 5s-2 5-5 6H157ZM109 375H45c-5 0-7-2-7-6s3-6 7-6h128c6 0 10 4 7 9-1 3-4 3-7 3h-64Z"/><path d="M91 49 49 89c-5 4-8 5-11 2s-2-6 3-10l44-42c5-4 7-4 12 0l45 42 2 2c2 3 2 6 0 8-3 2-5 3-8 1l-4-3-41-40ZM98 243h51l4 1c3 0 4 2 4 5s-1 5-4 6H47c-6 0-9-2-9-6s3-6 8-6h52ZM126 303h25c4 0 7 3 7 6 0 4-2 6-7 6h-51c-4 0-7-2-7-6s3-6 7-6h26ZM53 303h10c3 1 5 3 5 6 0 4-2 6-5 6H44c-4 0-6-2-6-6 0-3 3-5 6-6h9ZM272 283c0 22-18 39-40 40a40 40 0 1 1 40-40Zm-39-29a28 28 0 1 0-2 57 28 28 0 0 0 2-57Z"/></svg>