<svg xmlns="http://www.w3.org/2000/svg" viewBox="0 0 419.93 460.97"><path d="M332.89 21.76h-33.54v11.97c0 9.6.1 19.2-.04 28.8-.15 10.28-7.73 14.87-17.01 10.36-23.1-11.23-46.2-22.46-69.21-33.87-3.35-1.66-5.95-1.52-9.25.11C142.45 69.39 81 99.52 19.55 129.67c-1.86.91-3.74 1.83-5.7 2.45-4.96 1.57-10.4-.73-12.64-5.17-2.36-4.68-1.23-10.05 2.97-13.34 1.49-1.17 3.2-2.09 4.91-2.93 62.29-30.6 124.62-61.12 186.86-91.81 8.56-4.22 16.59-4.34 25.13-.06 18.53 9.29 37.22 18.24 56.33 27.57.16-1.56.39-2.71.39-3.87.03-8.16-.07-16.32.05-24.48C278.01 7.47 284.67.38 295.1.19c14.05-.26 28.11-.25 42.16 0 10.5.18 17.24 7.18 17.3 17.73.13 20.64.13 41.28-.04 61.92-.03 3.38 1.06 5.05 4.06 6.51 17.81 8.62 35.5 17.47 53.25 26.2 3.71 1.83 6.95 4.08 7.81 8.43.79 4.01-.03 7.68-3.21 10.49-3.29 2.91-7.11 3.42-11.19 2-1.35-.47-2.63-1.16-3.92-1.79-19.88-9.82-39.7-19.79-59.69-29.38-6.33-3.04-8.88-7.5-8.82-14.38.19-20 .07-40 .07-60v-6.14ZM210.73 460.95c-18.69 0-37.38.03-56.07 0-14.78-.03-22.13-7.33-22.14-22.1-.01-14.56-.49-29.15.33-43.67 1.59-27.91 21.28-48.59 49-50.35 19.56-1.24 39.33-1.25 58.89 0 26.99 1.72 46.51 22.23 48.04 49.58.89 15.79.58 31.68.18 47.51-.31 12.05-8.2 18.95-20.74 19.02-19.17.1-38.34.03-57.5.03Zm57.64-20.76c0-15.63.52-30.82-.14-45.96-.69-15.77-13.46-28.49-29.12-28.97-18.51-.57-37.06-.62-55.56 0-17 .58-29.82 14.08-30.3 31.16-.4 14.07-.1 28.16-.09 42.24 0 .43.28.87.44 1.32h8.72c0-10.12-.03-19.87.01-29.61.02-4.47-.05-8.97.33-13.42.38-4.46 3.3-6.93 7.63-7.12 4.35-.18 7.27 2.12 8.21 6.48.37 1.7.44 3.48.44 5.23.04 11.2.02 22.4.02 33.6v4.88h67.14v-5.52c0-11.68-.05-23.36.02-35.04.04-6.05 3.26-9.76 8.22-9.76 4.95 0 8.18 3.71 8.21 9.77.07 11.84.02 23.68.02 35.52v5.19h5.79ZM63.4 350.66v-22.29c0-12.8-.04-25.6.02-38.4.03-5.84 2.15-9.16 6.16-10.16 5.93-1.47 10.43 2.45 10.52 9.58.15 10.88.04 21.76.04 32.64v28.39c1.97.09 3.64.22 5.32.23 12.46.02 24.92-.11 37.38.07 7.98.12 12.79 6.61 10.26 13.48-1.7 4.6-5.36 6.74-10.04 6.75-26.36.07-52.71.23-79.06-.1-11.75-.15-20.93-9.58-21.05-21.33-.24-22.24-.6-44.5.15-66.71 1.15-34.06 29.83-63.48 64.56-64.92 28.04-1.17 56.2-.21 84.29.41 10.72.24 20.38 4.95 29.29 10.82 5.07 3.33 6.28 9.42 3.23 14.29-2.79 4.45-8.51 6.19-13.41 3.03-11.58-7.47-24.28-8.9-37.6-8.71-19.32.28-38.65.03-57.98.08-30.95.07-52.3 21.52-52.34 52.55-.02 18.08.16 36.16-.11 54.24-.08 4.98 1.58 6.52 6.34 6.14 4.42-.35 8.88-.07 14.05-.07ZM370.69 396.77h11.77c.22-.73.55-1.32.55-1.91-.18-19.83.14-39.68-.75-59.48-.86-19.15-17.85-36.52-36.86-37.27-23.92-.95-47.89-.55-71.84-.82-2.34-.03-4.89-.16-6.97-1.08-4.01-1.75-6.03-5.21-5.64-9.65.38-4.34 2.59-7.56 6.96-8.76 1.97-.54 4.07-.83 6.11-.83 22.2-.06 44.41-.25 66.61 0 34.94.39 62.06 27.42 62.68 62.51.33 18.72.19 37.44.05 56.17-.09 12.76-8.61 21.49-21.34 21.6-24.12.2-48.24.12-72.36.04-7-.02-11.59-4.19-11.61-10.1-.02-5.91 4.62-10.15 11.57-10.21 13.1-.11 26.2-.03 39.3-.03h5.13v-17.71c0-11.36-.02-22.72.02-34.08 0-1.91.08-3.85.42-5.73.73-4.03 3.56-6.11 7.36-6.36 3.83-.25 6.89 1.56 8.07 5.42.6 1.94.75 4.08.76 6.14.06 15.52.03 31.04.03 46.57v5.57Z"/><path d="M181.21 153.57c-.04 29.17-23.55 52.75-52.64 52.81-28.92.05-52.77-23.73-52.88-52.71-.11-29.12 24.04-53.29 53.03-53.05 29.19.23 52.53 23.78 52.49 52.96Zm-52.05-32.35c-17.98-.39-32.78 13.96-33.05 32.07-.26 17.4 14.09 32.14 31.66 32.51 17.81.38 32.48-13.64 33.06-31.6.57-17.57-13.86-32.59-31.67-32.98ZM260.4 217.95c.14-26.54 22.21-48.54 48.61-48.45 26.61.09 48.55 22.39 48.4 49.19-.15 26.38-22.66 48.55-48.9 48.18-26.74-.38-48.25-22.26-48.11-48.92Zm48.25 28.36c15.43.11 28.05-12.21 28.42-27.75.36-15.32-12.7-28.51-28.21-28.49-15.39.02-28.07 12.66-28.13 28.04-.07 15.4 12.5 28.09 27.92 28.2ZM211.62 336.53c-22.43-.08-41.06-18.9-40.69-41.09.38-22.64 18.89-40.88 41.21-40.61 22.22.27 40.52 18.75 40.49 40.88-.03 22.38-18.63 40.9-41.01 40.82Zm-20.18-41.24c-.16 11.37 8.67 20.65 19.88 20.92 11.15.27 20.52-8.81 20.74-20.08.22-11.33-8.58-20.59-19.89-20.93-11.07-.34-20.57 8.86-20.73 20.09Z"/></svg>