<svg xmlns="http://www.w3.org/2000/svg" viewBox="0 0 383.29 384"><path d="M337.59 0c3.06 2.11 3.9 5.03 3.81 8.69-.21 8.96-.07 17.93-.07 27.31 7.51 0 14.7-.01 21.9 0 6.12.01 8.04 1.92 8.04 8.06V132c2.1 0 3.82-.06 5.53.01 4.01.16 6.35 2.32 6.4 6.27.11 7.75.11 15.5 0 23.24-.06 4.39-2.49 6.45-7.36 6.46-23.95.02-47.89 0-71.84 0h-4.6V237c0 1.25.12 2.53-.1 3.74-.59 3.23-2.59 5.18-5.9 5.17-3.3 0-5.29-1.96-5.88-5.19-.2-1.09-.09-2.24-.09-3.37v-69.36h-75.34c-6.68 0-8.49-1.78-8.49-8.36 0-6.5-.01-13 0-19.49.01-6.2 1.88-8.1 7.95-8.14h4.02V44.42c0-6.64 1.78-8.42 8.42-8.43h21.52V29.3c0-6.87.17-13.75-.07-20.62-.12-3.66.74-6.58 3.81-8.69h88.33Zm-8.51 131.82V12.18h-71.36v119.54h11.75c0-7.51-.02-14.75 0-21.99.02-5.67 2.02-7.72 7.61-7.73 10.73-.02 21.45-.02 32.18 0 6.16 0 8.1 1.91 8.11 7.99.02 7.21 0 14.43 0 21.82h11.71Zm-113.35 23.91h155.35V144.2H215.74v11.53Zm11.88-23.97h17.64V48.3h-17.64v83.46Zm131.53-83.49h-17.51v83.53h17.51V48.27Zm-54 83.57V114.3h-23.48v17.54h23.48ZM0 285.75c1.77-1.51 3.42-3.19 5.32-4.52 23.22-16.17 46.45-32.33 69.77-48.37 2.13-1.47 2.84-2.98 2.81-5.48-.12-11.24-.07-22.48-.05-33.73 0-4.81 2.1-7.52 5.81-7.63 3.84-.11 6.14 2.72 6.15 7.67.02 11.37.07 22.73-.05 34.1-.02 2.27.73 3.57 2.58 4.84 23.4 16.14 46.69 32.43 70.14 48.5 3.83 2.63 5.31 5.6 5.28 10.23-.18 27.98-.14 55.96-.02 83.94.02 3.66-.77 6.57-3.81 8.69H0v-98.25Zm155.69 86.09c0-16.56.05-32.79-.1-49.02-.01-1.13-1.29-2.57-2.37-3.32-22.19-15.5-44.46-30.88-66.63-46.4-2.11-1.48-3.44-1.4-5.51.04-22.18 15.51-44.43 30.93-66.72 46.28-1.91 1.31-2.45 2.72-2.44 4.92.09 14.75.04 29.49.06 44.24 0 1.08.14 2.15.2 3.12H53.9c0-15.54-.01-30.79 0-46.03 0-5.64 2.03-7.65 7.68-7.66 14.84-.02 29.68-.02 44.53 0 5.63 0 7.66 2.04 7.66 7.68.02 14 0 27.99 0 41.99v4.16h41.92Zm-143.7-65.5c1.65-1.06 2.79-1.73 3.87-2.48 20.71-14.35 41.42-28.71 62.13-43.06 5.47-3.79 6.25-3.82 11.63-.09 20.71 14.36 41.41 28.72 62.12 43.08 1.15.8 2.35 1.54 3.96 2.59 0-4.76.17-8.76-.09-12.74-.09-1.36-.94-3.13-2.01-3.89-22.49-15.73-45.07-31.33-67.58-47.02-1.57-1.09-2.62-1.15-4.24-.03-22.61 15.77-45.29 31.45-67.91 47.2-.81.56-1.75 1.64-1.78 2.51-.18 4.43-.08 8.88-.08 13.91Zm89.55 65.49V330.3H66.07v41.53h35.47ZM0 81.75c.76-3.76 1.44-7.53 2.3-11.27C10.68 33.65 45.64 5.66 82.74 5.99c3.02.03 5.83.82 6.44 3.88.4 1.99-.25 4.74-1.47 6.34-.96 1.25-3.52 1.69-5.38 1.75-32.85.95-60.6 23.29-68.28 55.32-1.13 4.7-1.61 9.59-1.96 14.42-.25 3.42-.45 6.57-4.21 7.93-3.63 1.32-5.78-1-7.87-3.38v-10.5ZM287.44 354.04c-6.45.12-12.55.09-17.56-4.3-4.88-4.28-6.69-9.75-6.43-16.59-5.94 2.53-11.51 4.91-17.09 7.29-2.75 1.17-5.46 2.45-8.25 3.51-8.23 3.12-16.31-2.29-16.5-11.12-.14-6.74-.03-13.49-.03-20.83h-33.61c-5.45 0-8.22-1.99-8.28-5.91-.06-3.95 2.76-6.08 8.11-6.08h33.78c0-7.02-.07-13.84.02-20.66.08-6.33 4.09-11.34 10.13-12 2.57-.28 5.46.43 7.92 1.41 7.84 3.12 15.55 6.58 23.63 10.05.15-2.12.15-3.84.42-5.51 1.42-8.81 8.71-15.23 17.71-15.25 27.94-.08 55.88-.09 83.81 0 10.38.03 17.98 7.9 18.02 18.49.07 19.49.05 38.99 0 58.48-.02 11.41-7.62 18.92-19.07 18.99h-4.87c0 5.59.02 10.92 0 16.25-.02 5.66-2.04 7.74-7.61 7.74-18.83.02-37.67.02-56.5 0-5.78 0-7.72-2.03-7.74-7.98-.02-5.22 0-10.43 0-15.97ZM323.33 270c-13.46 0-26.92-.02-40.38 0-5.41.01-7.47 2.06-7.47 7.46-.02 18.98-.02 37.96 0 56.95 0 5.58 2.05 7.58 7.74 7.58 26.8.01 53.6.01 80.39 0 5.65 0 7.66-2.01 7.67-7.66.02-18.86.02-37.71 0-56.57 0-5.83-1.99-7.75-7.93-7.76-13.34-.01-26.67 0-40.01 0Zm-89.53 9.23v53.54c9.63-4.12 18.9-8.03 28.09-12.11.8-.35 1.51-1.87 1.53-2.86.12-7.86.12-15.73 0-23.59-.02-.99-.74-2.5-1.53-2.86-9.19-4.09-18.46-8-28.08-12.11Zm65.79 86.51h47.43V354.2h-47.43v11.54ZM79.44 117.95c14.03-8.04 25.1-18.49 32.54-32.81-1.82-1.97-3.62-3.85-5.35-5.81-3.85-4.36-4.69-9.33-2.38-14.63 3.93-9.04 7.89-18.07 12.11-26.97 2.46-5.18 6.95-8.09 12.68-7.6 9.33.79 18.08 3.64 25.56 9.55 12.38 9.78 16.36 25.63 10.36 41.66-1.82 4.86-4.11 9.53-6.35 14.66h34.33c1.5 0 3-.06 4.49.02 3.6.21 6.04 2.54 6.14 5.8.1 3.4-2.41 6.07-6.16 6.13-6.86.12-13.72.04-20.58.04-7.49 0-14.97.08-22.46-.05-2.22-.04-3.52.68-4.89 2.5-18.49 24.53-40.01 45.52-68.36 58.54-12.98 5.96-25.95 7.67-38.54-.33-12.37-7.87-17.36-20.27-18.46-34.29-.43-5.51 2.86-9.67 8.04-11.99 8.19-3.66 16.39-7.29 24.56-10.99 8.14-3.69 12.45-3.04 18.99 3.04 1.18 1.1 2.35 2.22 3.74 3.53Zm76.27-48.27c-.06-10.69-3.14-17.54-10.3-21.63-4.45-2.54-9.63-3.81-14.5-5.59-2.53-.92-3.8.27-4.8 2.63-2.42 5.74-5.22 11.32-7.65 17.06-4.3 10.15-5.23 6.97 2.72 14.98 3.62 3.65 4.45 7.42 2.25 11.82-8.68 17.39-21.51 30.81-38.82 39.66-6.39 3.27-8.79 2.53-13.95-2.45-1.08-1.04-2.27-1.97-3.25-3.09-1.69-1.93-3.43-1.93-5.65-.84-5.48 2.68-11.04 5.19-16.6 7.7-10.66 4.82-10.79 5.11-6.14 16.23 4.55 10.89 13.36 16.84 24.16 15.64 4.12-.46 8.29-1.79 12.12-3.46 14.75-6.46 27.74-15.55 39.41-26.69 15.19-14.5 28.94-30.02 37.07-49.71 1.93-4.67 3.12-9.64 3.94-12.25Z"/><path d="M28.4 88.07c.79-28.97 25.37-53.21 53.57-53.61 5.02-.07 7.83 2.06 7.82 5.93 0 3.69-2.7 5.88-7.47 6.06-22.97.89-41.01 19.01-41.95 42.13-.19 4.73-2.45 7.44-6.15 7.39-3.74-.06-5.87-2.82-5.83-7.56v-.34Z"/><path d="M56.72 88.67c.4-13.87 12.11-25.53 25.95-25.85 4.16-.09 6.86 1.97 7.12 5.45.25 3.42-2.16 5.92-6.25 6.48-9.4 1.28-13.72 5.56-14.89 14.73-.55 4.33-3.12 6.84-6.64 6.47-3.45-.36-5.39-3.04-5.27-7.28ZM293.43 42c-5.61 0-11.23.04-16.84-.01-4.41-.04-7.08-2.34-7.08-5.99 0-3.66 2.65-5.97 7.08-5.99 11.23-.04 22.45-.04 33.68 0 4.41.01 7.09 2.34 7.09 5.98 0 3.64-2.68 5.96-7.08 5.99-5.61.05-11.23.01-16.84.01ZM293.39 66c-5.61 0-11.23.04-16.84-.01-4.4-.04-7.07-2.37-7.04-6.03.02-3.65 2.67-5.93 7.11-5.95 11.23-.04 22.45-.04 33.68 0 4.39.02 7.07 2.38 7.05 6.02-.03 3.63-2.7 5.92-7.12 5.96-5.61.04-11.23.01-16.84.01ZM293.43 78c5.61 0 11.23-.03 16.84.01 4.41.04 7.08 2.35 7.08 5.99s-2.69 5.97-7.09 5.99c-11.23.04-22.45.04-33.68 0-4.41-.02-7.08-2.34-7.07-5.99 0-3.66 2.65-5.94 7.08-5.98 5.61-.05 11.23-.01 16.84-.01ZM299.42 305.74c0-5.62-.07-11.25.02-16.87.1-5.75 4.24-8.36 9.42-5.81 11.52 5.66 23.03 11.33 34.36 17.35 1.84.98 3.8 3.75 3.78 5.67-.03 1.93-2.04 4.62-3.91 5.61-11.22 5.95-22.63 11.56-34.03 17.17-5.55 2.73-9.58.07-9.63-6.24-.05-5.62-.01-11.25 0-16.87Zm28.47.25c-5.84-2.92-10.97-5.48-16.2-8.1v16.27c5.43-2.74 10.47-5.28 16.2-8.17Z"/></svg>