<svg xmlns="http://www.w3.org/2000/svg" viewBox="0 0 384 383.36"><path d="M0 100.3c3.1-7.43 8.78-10.15 16.66-9.75 7.23.37 14.49.05 21.74.09 4.59.02 7.31 2.23 7.24 5.75-.07 3.41-2.66 5.45-7.07 5.46-7.75.02-15.5.11-23.24-.04-3.01-.06-4.14.78-4.14 4 .08 58.61.08 117.22.02 175.84 0 2.68.69 3.74 3.56 3.74 54.73-.07 109.46-.08 164.18.02 3.4 0 3.48-1.67 3.48-4.17-.04-36.29-.03-72.58-.03-108.87V108.4c0-7.09.72-6.52-6.35-6.52H65.09c-1.12 0-2.25.05-3.37-.03-3.28-.23-5.46-2.4-5.51-5.43-.05-3.04 2.03-5.31 5.29-5.7.99-.12 2-.06 3-.06h43.8v-4.78c0-23.2.16-46.39-.09-69.59-.09-7.96 2.69-13.47 10.28-16.27h255.75c4.55 1.94 7.78 5.21 9.75 9.73v52.38c-1.63 2.87-3.92 4.72-7.36 3.62-3.45-1.11-3.94-4.02-3.92-7.25.07-14.35-.05-28.69.09-43.04.03-3.26-.94-4.3-4.26-4.29-81.62.08-163.25.07-244.87.02-2.7 0-4.18.49-4.17 3.64.08 24.45.04 48.9.06 73.35 0 .72.2 1.44.35 2.45h4.17c18.25 0 36.5-.01 54.75 0 9.86 0 14.8 4.89 14.8 14.67.01 58.88.01 117.77 0 176.65 0 9.86-4.81 14.59-14.77 14.59-18.25.01-36.5 0-54.75 0h-4.35c-.09 1.54-.21 2.75-.21 3.96-.01 22.21.06 44.41-.07 66.62-.02 3.62.84 4.97 4.79 4.97 81.25-.11 162.5-.11 243.74 0 3.87 0 4.8-1.2 4.8-4.91-.09-93.32-.07-186.63-.07-279.95 0-1 .04-2 0-2.99-.15-3.16.25-6.05 3.73-7.37 3.54-1.35 5.58.83 7.53 3.21v293.44c-3.21 7.52-8.99 9.86-17 9.84-80.97-.18-161.95-.11-242.92-.11-10.94 0-15.76-4.79-15.77-15.71-.01-22.07 0-44.15 0-66.22v-4.76h-4.92c-29.12 0-58.23-.17-87.35.11-7.88.08-13.23-2.58-16.04-9.98V100.3Z"/><path d="M274.46 56.29c6.99-5.79 13.22-10.96 19.46-16.12 4.29-3.56 6.09-3.6 10.45.01 14.91 12.34 29.79 24.71 44.7 37.04 2.28 1.89 3.84 4.01 2.75 7.1-1.08 3.07-3.58 3.89-6.56 3.87-3.71-.03-7.43 0-11.32 0v39.7c2.26 0 4.47-.1 6.67.02 3.33.18 5.52 2.35 5.61 5.36.09 2.92-2.1 5.33-5.31 5.75-.98.13-2 .07-3 .07H260.3c-1.24 0-2.53.05-3.72-.23-2.91-.67-4.63-2.6-4.49-5.6.15-3.14 1.99-5.08 5.2-5.31 2.22-.16 4.46-.03 6.99-.03V88.2c-3.88 0-7.6-.03-11.32 0-3 .03-5.47-.85-6.57-3.89-1.06-2.93.34-5.02 2.54-6.81 4.16-3.4 8.36-6.74 12.35-10.33 1.03-.92 1.77-2.63 1.86-4.03.25-3.85.03-7.73.1-11.59.07-3.83 2.22-6.2 5.49-6.25 3.27-.05 5.54 2.34 5.73 6.08.07 1.34.01 2.69.01 4.92Zm1.55 71.27h46.26V88.42h-46.26v39.14Zm54.92-50.75c-11.08-9.19-21.33-17.68-31.8-26.35-10.46 8.68-20.73 17.2-31.75 26.35h63.55ZM250.71 309.65h92.95c5.83 0 8.48 1.72 8.51 5.51.03 3.81-2.75 5.72-8.4 5.72-62.09 0-124.19 0-186.28-.01-1.49 0-3.03-.02-4.45-.39-2.79-.72-4.11-2.75-3.96-5.58.15-2.85 1.72-4.64 4.57-5.08 1.35-.21 2.74-.15 4.11-.15h92.95ZM250.69 337.34h92.58c1.5 0 3.36-.44 4.41.28 1.77 1.21 4.05 3.09 4.19 4.84.14 1.77-1.76 4.07-3.36 5.46-1 .87-3.1.62-4.7.62-62.09.03-124.19.02-186.28 0-1.49 0-3.03-.03-4.45-.39-2.79-.71-4.12-2.73-3.98-5.56.14-2.85 1.7-4.65 4.55-5.1 1.35-.21 2.74-.15 4.11-.15h92.95ZM278.98 171.23h64.46c1.25 0 2.51-.05 3.74.08 3.08.33 4.75 2.25 4.93 5.18.16 2.77-1.25 4.82-4.03 5.55-1.3.34-2.71.39-4.07.39-43.35.02-86.7.02-130.05 0-1.36 0-2.77-.06-4.07-.4-2.79-.73-4.21-2.79-4.05-5.55.17-2.91 1.85-4.86 4.93-5.18 1.24-.13 2.5-.08 3.74-.08h64.46ZM279.05 198.93c21.74 0 43.47-.02 65.21.03 1.71 0 3.89-.11 5 .84 1.41 1.2 2.8 3.51 2.63 5.18-.17 1.67-2.01 3.52-3.6 4.58-1.18.79-3.13.57-4.74.57-43.1.02-86.2.02-129.3.02-.75 0-1.5.03-2.25-.02-3.8-.27-6.22-2.48-6.24-5.65-.02-3.34 2.47-5.53 6.57-5.54 22.24-.03 44.47-.01 66.71-.02ZM279.39 226.56h63.71c1.37 0 2.76-.03 4.12.13 3.07.35 4.76 2.28 4.89 5.21.14 2.95-1.45 4.99-4.42 5.64-1.2.26-2.48.24-3.72.24-43.35.01-86.7.01-130.04 0-1.36 0-2.77-.03-4.08-.37-2.79-.73-4.17-2.83-4.01-5.57.16-2.73 1.72-4.67 4.61-5.09 1.35-.2 2.74-.17 4.11-.17h64.83ZM278.97 254.25h64.08c1.37 0 2.76-.03 4.12.11 3.07.32 4.78 2.24 4.94 5.17.16 2.95-1.4 5-4.38 5.67-1.2.27-2.48.26-3.72.26-43.35.01-86.7.01-130.04 0-1.36 0-2.77-.03-4.08-.36-2.8-.71-4.19-2.79-4.05-5.54.14-2.74 1.68-4.69 4.56-5.13 1.35-.2 2.74-.17 4.11-.17h64.46ZM279.12 281.95h64.46c1.37 0 2.77-.05 4.11.19 2.87.5 4.74 2.57 4.3 5.2-.33 1.96-2.12 3.93-3.76 5.3-.94.79-2.87.52-4.35.52-43.22.02-86.44.02-129.67.02-.62 0-1.25.02-1.87 0-4.04-.19-6.57-2.39-6.55-5.69.02-3.32 2.5-5.49 6.64-5.5 21.11-.04 42.22-.02 63.33-.02h3.37ZM170.9 81.56c-8.74 0-17.49.01-26.23 0-4.74 0-7.34-1.97-7.41-5.51-.07-3.55 2.58-5.7 7.2-5.71 17.61-.02 35.22-.02 52.84 0 4.44 0 6.95 2.02 7.01 5.5.06 3.61-2.52 5.71-7.18 5.72-8.74.02-17.49 0-26.23 0ZM170.63 42.1c-8.86 0-17.73.03-26.59-.01-4.24-.02-6.64-1.97-6.76-5.33-.13-3.47 2.41-5.84 6.73-5.86 17.85-.06 35.71-.06 53.56 0 4.34.01 6.83 2.32 6.72 5.83-.1 3.41-2.42 5.33-6.69 5.35-8.99.04-17.98.01-26.97.01ZM170.98 50.72c8.74 0 17.48-.02 26.22 0 4.61.02 6.98 1.84 7.1 5.34.12 3.62-2.46 5.85-7.07 5.86-17.6.04-35.21.12-52.81-.12-2.15-.03-4.77-1.41-6.23-3.02-.92-1.01-.79-4.2.16-5.35 1.2-1.46 3.7-2.54 5.67-2.6 8.98-.27 17.98-.12 26.97-.12ZM97.08 118.88c20.37 0 40.74-.01 61.11 0 7.72 0 10.39 2.67 10.41 10.32.02 7.73.04 15.47 0 23.2-.04 6.77-3.05 9.82-9.89 9.82-41.24.03-82.49.03-123.73 0-6.79 0-9.69-2.86-9.74-9.5-.06-8.23-.07-16.47 0-24.7.06-6.3 2.9-9.12 9.22-9.14 20.87-.04 41.74-.01 62.61-.02Zm59.98 31.93v-20.4H36.78v20.4h120.28ZM157.35 183.2h-18.63v73.78h18.63c0-4.15-.04-8.22.01-12.29.06-4.06 2.23-6.59 5.54-6.59 3.32 0 5.59 2.53 5.66 6.57.09 4.86.13 9.73-.02 14.59-.18 5.69-3.48 9.08-9.19 9.21-7.62.18-15.25.17-22.87 0-5.92-.13-9.18-3.52-9.19-9.51-.06-25.94-.06-51.89 0-77.83.01-6.01 3.21-9.23 9.3-9.36 7.49-.16 15-.15 22.49 0 6.16.13 9.42 3.48 9.46 9.67.09 13.1.06 26.19 0 39.29-.02 4.37-2.25 6.86-5.77 6.8-3.51-.06-5.43-2.48-5.45-7.02-.03-10.98-.01-21.95-.01-32.93v-4.4ZM25.26 192.33c0-3.98-.13-7.97.03-11.95.21-5.02 3.16-8.3 8.17-8.46 8.22-.26 16.47-.26 24.69-.01 4.95.15 8.14 3.39 8.28 8.4.24 8.09.25 16.19-.02 24.28-.17 5.12-3.54 8.24-8.75 8.36-7.86.18-15.72.19-23.58 0-5.56-.13-8.58-3.42-8.86-9.03-.01-.25-.01-.5-.01-.75v-10.83h.04Zm29.72 9.19v-18.31H36.79v18.31h18.19ZM76.26 192.21c0-3.74-.08-7.47.02-11.21.15-5.65 3.14-9.01 8.69-9.16 7.98-.22 15.97-.21 23.95.02 5.16.15 8.41 3.39 8.56 8.55.23 7.96.23 15.94 0 23.9-.15 5.3-3.54 8.51-8.9 8.62-7.86.17-15.72.18-23.58-.01-5.39-.13-8.51-3.41-8.69-8.76-.14-3.98-.03-7.97-.03-11.95h-.02Zm29.88-8.98H87.69v18.28h18.45v-18.28ZM45.84 227.32c3.87 0 7.74-.08 11.6.02 5.38.15 8.82 3.17 8.99 8.48.25 7.96.24 15.94.02 23.9-.15 5.3-3.5 8.59-8.83 8.73-7.86.21-15.72.21-23.58 0-5.51-.15-8.69-3.54-8.78-9.11-.13-7.72-.14-15.44.01-23.16.11-5.6 3.34-8.69 8.96-8.85 3.87-.11 7.74-.02 11.6-.02Zm9.22 11.44h-18.3v18.32h18.3v-18.32ZM76.27 247.91c0-3.86-.09-7.72.02-11.58.16-5.66 3.26-8.88 8.83-8.97 7.86-.13 15.72-.13 23.58 0 5.14.09 8.58 3.2 8.75 8.32.26 8.09.25 16.19 0 24.28-.15 5.08-3.52 8.35-8.67 8.49-7.98.22-15.97.24-23.95 0-5.32-.16-8.38-3.58-8.55-8.94-.12-3.86-.02-7.72-.03-11.58Zm29.8 9.2v-18.26H87.76v18.26h18.31Z"/></svg>