<svg xmlns="http://www.w3.org/2000/svg" viewBox="0 0 408.72 377.46"><path d="M408.72 287.99c-2.29 9.25-3.5 18.95-7.07 27.68-13.77 33.6-38.76 54.18-74.61 60.31-30.43 5.2-57.32-3.27-80.64-23.5-1.5-1.3-4.01-2.03-6.05-2.03-71.06-.1-142.11-.08-213.17-.09-9.53 0-15.51-3.93-17.86-11.65-2.89-9.5 3.56-19.58 13.46-20.34 6.88-.53 13.83-.25 20.74-.32 1.57-.02 3.13 0 5.09 0v-25.14c0-1.47-.1-2.95.08-4.4.38-3.15 2.06-5.23 5.36-5.39 3.47-.18 5.67 1.66 5.95 5.09.32 3.84.22 7.72.24 11.58.03 5.85 0 11.69 0 17.9H83.5V186.92c0-1.6-.03-3.2.07-4.8.41-6.97 5.06-11.78 12.05-11.8 28.47-.11 56.95-.12 85.43.01 7.62.03 12.08 5.41 12.09 13.86.02 42.8 0 85.59 0 128.39v5.12h28.19c-13.23-36.92-9.06-71.32 16.62-101.12 25.61-29.73 58.84-38.96 97.34-31.38 0-10.39-.73-20.84.21-31.13.87-9.43-2.62-14.55-10.45-19.65-41.48-27-82.52-54.67-123.64-82.22-2.76-1.85-4.58-1.81-7.33.03-43.33 29.03-86.72 57.97-130.18 86.8-2.8 1.86-3.75 3.79-3.73 7.09.12 34.13.08 68.26.06 102.39 0 1.59-.06 3.2-.28 4.78-.43 3.13-2.56 4.77-5.47 4.82-3.14.05-5.23-1.8-5.75-5.02-.21-1.3-.13-2.66-.13-3.99v-99.75c-6.46 4.28-12.18 8.33-18.15 11.97-12.8 7.83-28.48.23-30.31-14.65-.78-6.33 1.33-11.85 5.89-16.29 1.61-1.57 3.5-2.86 5.38-4.11 21.57-14.41 43.15-28.82 64.79-43.14 2.25-1.49 3.14-3.08 3.12-5.81-.13-14.65-.06-29.3-.06-43.86-8.32-2.5-9.13-3.6-9.13-12.16 0-4.27-.07-8.53.03-12.8.12-5.3 2.88-8.39 8.09-8.41 20.09-.11 40.18-.11 60.28.01 4.86.03 7.71 2.82 7.96 7.72.29 5.72.3 11.47 0 17.19-.26 5.12-2.58 6.99-8.94 8.04v8.83c1.39-.83 2.59-1.47 3.73-2.23 16.06-10.69 32.11-21.4 48.16-32.1 6.97-4.65 9.7-4.65 16.68 0C240 30.13 273.88 52.71 307.75 75.29c5.24 3.49 6.59 6.57 4.37 9.9-2.26 3.4-5.47 3.35-10.76-.18-33.22-22.13-66.43-44.27-99.65-66.4-1.21-.81-2.45-1.59-3.87-2.51-1.2.75-2.43 1.48-3.62 2.28C135.66 57.4 77.09 96.43 18.52 135.47c-1.44.96-2.93 1.88-4.2 3.03-2.99 2.7-3.51 7.25-1.36 10.56 2.2 3.39 6.4 4.65 10.18 2.92 1.56-.72 3-1.71 4.44-2.66 53.7-35.78 107.4-71.57 161.09-107.36 7.98-5.32 10.26-5.31 18.33.06 53.7 35.78 107.4 71.57 161.1 107.35 1.22.81 2.42 1.67 3.71 2.34 4.06 2.1 8.5.96 10.87-2.72 2.36-3.66 1.57-8.13-2.02-11.04-1.03-.83-2.18-1.53-3.28-2.26-13.5-9.01-27.01-18.01-40.51-27.03-1.21-.81-2.93-1.57-3.33-2.72-.71-2.06-1.42-4.81-.58-6.5.74-1.49 3.52-2.33 5.54-2.7 1.17-.22 2.72.88 3.91 1.67 14.42 9.56 28.86 19.08 43.17 28.79 12.63 8.57 13.46 24.41 1.92 33.35-6.47 5.01-15.26 5.29-22.79.52-5.7-3.61-11.27-7.43-17.67-11.67v8.1c0 9.33.1 18.67-.06 28-.05 2.74.72 4.13 3.35 5.37 33.28 15.62 52.65 41.62 57.68 78.21.1.73.47 1.43.71 2.15v16.8Zm-11.71-7.61c.7-46.12-37.37-85.34-83.54-86.08-48.28-.77-86.9 36.76-87.66 85.18-.74 46.9 37.51 85.76 84.94 86.31 47.17.55 85.53-37.44 86.26-85.41Zm-215.72 37.37c.09-1.31.22-2.23.22-3.14 0-43.03-.03-86.06.08-129.09 0-3.49-1.47-3.83-4.3-3.82-25.93.08-51.86.13-77.78-.05-3.87-.03-4.56 1.29-4.55 4.8.11 42.36.07 84.73.07 127.09v4.21h86.26Zm51.78 20.84c-2.56-6.09-5.57-9.23-12.72-9.19-64.11.36-128.22.21-192.33.21-5.49 0-7.81 1.41-7.72 4.67.09 3.14 2.13 4.31 7.58 4.31h205.19ZM91.3 32.98v39.98c11.16-7.44 21.89-14.57 32.57-21.77.79-.53 1.74-1.56 1.77-2.39.16-5.26.08-10.53.08-15.83H91.3Zm43.41-20.89H81.95v8.78h52.76v-8.78Z"/><path d="M310.32 232.95c-.08-3.62.21-7.13 4.92-7.01 4.1.11 4.79 3.12 4.69 6.51 4.51.89 8.95 1.59 13.3 2.69 2.27.57 4.54 1.57 6.49 2.86 3.98 2.64 4.56 6.68 1.97 11.25-2.28 4.02-5.06 4.7-9.8 2.76-3.72-1.52-7.57-2.74-12.05-4.34 0 8.53-.07 15.97.1 23.4.02.82 1.26 1.88 2.18 2.35 2.83 1.45 5.89 2.48 8.67 4.02 11.54 6.39 16.37 16.17 14.66 29.32-1.57 12.05-9.59 20.59-22.26 23.63-1.87.45-3.65.66-3.4 3.36.3 3.32-1.65 5.08-4.77 5.06-3.15-.02-4.88-1.82-4.58-5.18.05-.51-.1-1.04-.14-1.41-5-1.2-10.1-1.79-14.65-3.71-4.17-1.76-8.07-4.56-11.48-7.6-3.24-2.89-3.65-6.92-1.57-10.98 2.79-5.41 6.41-6.4 11.26-2.83 4.93 3.63 9.73 7.46 16.58 7.87 0-8.61.07-17.11-.11-25.61-.02-.89-1.4-2.05-2.42-2.55-3.45-1.71-7.13-2.97-10.51-4.79-10.44-5.62-14.81-14.44-13.27-26.2 1.4-10.7 7.88-17.11 17.65-20.58 2.61-.93 5.36-1.46 8.54-2.3Zm8.45 81.46c5.81-.5 9.65-4.1 10.1-9.36.56-6.42-3.28-11.51-10.1-13.23v22.59Zm-7.55-65.42c-7.01 1.19-10.5 4.23-10.62 9.06-.13 5.2 3.8 9.21 10.62 10.62v-19.68ZM158.13 246.69c0-2.12-.23-4.28.05-6.37.43-3.12 2.34-5.11 5.61-5.12 3.24-.01 5.39 1.81 5.6 5.03.28 4.36.28 8.76.02 13.12-.19 3.18-2.22 5.1-5.52 5.11-3.5.01-5.36-2.1-5.75-5.4-.25-2.1-.05-4.24-.05-6.37h.03Z"/></svg>