<svg xmlns="http://www.w3.org/2000/svg" viewBox="0 0 371.1 376.4"><path d="m354 174-10 9c-6 6-8 13-5 21 4 7 10 11 18 11h14v60h-14c-8 0-14 3-18 11-3 8-1 15 5 21l9 9-43 43-8-10c-7-6-14-8-21-4-8 3-12 9-11 18v13H0v-57c0-34 23-60 57-64l20-3 2-3c3-7 4-12-4-18-7-4-11-13-13-21l-13-4c-6-2-10-7-11-13-2-6-5-10-8-15a35 35 0 0 1 6-46l2-2c-15-14-8-38 14-41L25 71l53-35v29h100l-45-30 53-35v29h28c5 0 10 1 14 5 2 3 5 7 5 11v20h-11V50c0-7-2-9-9-9h-27v24l2 2c6 4 10 10 10 17v61c6-2 11-8 12-16v-16h12v-12h11v12h12v-12h12v12h13v16c0 8 4 14 12 16v-37c0-11 7-19 18-19h17V60l53 35-52 35v-29h-19c-3 0-5 3-5 6v39c8-3 11-10 17-15l43 43Zm-97 191c0-15 6-25 19-31s25-2 35 8l25-25c-9-10-13-21-8-35 6-14 17-19 31-19v-36c-14 0-25-5-30-18-6-14-3-26 7-36l-25-25c-9 10-21 14-34 8-14-5-20-16-20-31h-35c1 25-21 40-43 31l-4 14v1l6 14a84 84 0 1 1 35 141v39h41Zm-92-203 1-2c9-29-13-59-44-59H55c-6 0-10 2-12 7s-1 9 3 13l12 11-13 8c-10 8-12 22-5 31 6-7 14-10 23-10h10c13 0 23-5 31-16l4-7 3 6c8 12 19 17 33 17l21 1Zm17 99a59 59 0 0 1 34-71c24-11 52-4 69 16a60 60 0 0 1-24 95c-16 6-32 5-48-2l2 11c0 2 1 3 3 4a72 72 0 1 0-50-59l2 2 12 4ZM72 173v25c0 18 14 33 32 35 17 2 35-10 38-27 2-10 2-22 2-33-14 0-26-4-36-14a48 48 0 0 1-36 14ZM42 310v-39l-4 2c-16 9-25 23-26 42v49h61l-21-37 17-13-27-4Zm122 17-22 38h61l1-2v-48c-1-17-9-30-23-40l-7-4v39l-27 4 17 13ZM78 89h45c28 1 53 22 56 50 1 4 3 6 7 6V85c0-6-2-8-9-8H78v12Zm29 263h1l21-55-2-3a452 452 0 0 0-21-11l-20 12 21 57Zm126-154c-22 2-40 23-40 41h41v-39l-1-2Zm54 41c0-19-24-43-41-41v41h41Zm-94 12c1 21 22 41 40 41v-41h-40Zm53 41c23-1 41-24 40-41h-40v41Zm-91-38 2-24 7-22-7 1c-2 0-3 1-4 3-2 8-6 15-13 20-7 4-7 10-4 16v2l2 2 17 2ZM99 365l-17-46-14 11c6 12 12 23 19 33l2 2h10Zm34-46-17 46h9c2 0 4-1 5-3l14-24 4-8-15-11Zm-11-76c-10 3-19 3-28 0l-3 10 1 2 16 12 15-11 2-3-3-10Zm-68 24v33l23 4-14-38-9 1Zm85 37 23-4v-33l-9-1-14 38ZM47 71l19 13V59L47 71Zm302 24-19-12v25l19-13ZM174 23l-19 12 19 13V23ZM60 173c-8 1-12 6-12 13 0 6 5 11 12 11v-24Zm96 24c7-1 12-6 12-13-1-6-6-11-12-11v24Zm-81 68 7 18 15-9-11-8c-3-3-7-3-11-1Zm66-1h-8l-14 10 15 9 7-19Z"/><path d="M294 41h-30c-4 0-6 3-6 7v17h-12V43c1-8 9-14 17-14h30V0l53 35-52 35V41Zm31-6-19-12v25l19-13ZM222 77h11v12h-11V77ZM246 77h11v12h-11V77Z"/></svg>