<svg xmlns="http://www.w3.org/2000/svg" viewBox="0 0 377.23 377.72"><path d="M284.85 249.46c.9.94 1.82 1.94 2.77 2.9 27.18 27.22 54.39 54.41 81.52 81.67 11.29 11.34 10.66 28.31-1.21 37.99-9.2 7.51-22.16 7.61-31.45.2-1.56-1.24-2.98-2.67-4.39-4.08-26.57-26.59-53.14-53.19-79.67-79.81-1.05-1.05-1.77-2.42-2.61-3.6-39.78 27.19-82.3 36.46-128.48 25.78-38.09-8.81-68.77-29.44-91.63-61.17C-16.02 185.86-8.17 98.53 47.82 44.31 103.77-9.87 191.11-14.84 252.4 32.03c64.12 49.03 84.19 144.71 32.45 217.43Zm16.87-91.88c.22-79.89-64.24-144.77-144.14-145.05-79.6-.27-144.48 64.38-144.9 144.39-.42 79.66 64.28 144.89 144.04 145.24 79.9.35 144.78-64.34 145-144.58Zm5.98 168.24c12.09 12.14 23.88 24.17 35.95 35.9 1.88 1.83 4.98 2.9 7.67 3.29 5.1.73 9.88-2.4 12.09-7.07 2.31-4.9 1.41-10.27-2.73-14.45-11.41-11.53-22.89-22.98-34.36-34.45-.32-.32-.76-.53-.99-.68-5.89 5.84-11.65 11.54-17.63 17.46Zm-9.25-10.1c5.62-5.6 11.41-11.38 16.61-16.57-5.47-5.5-11.23-11.28-16.66-16.74l-16.59 16.62c5.5 5.51 11.2 11.23 16.64 16.68Zm-38.63-38.28c3.92 3.78 8.22 7.92 12.4 11.95 5.45-5.46 11.24-11.28 16.51-16.55-3.97-4.24-8.11-8.65-11.65-12.43-5.75 5.67-11.5 11.35-17.26 17.03Z"/><path d="M289.19 157.41c-.05 73.03-58.93 132.05-131.79 132.11-73.02.06-132.11-59.09-132.08-132.21C25.34 84.19 84.48 25.08 157.5 25.2c72.86.12 131.75 59.24 131.7 132.21Zm-62.46-15.22v78.17c9.78 0 19.25-.11 28.71.07 2.52.05 3.76-.89 4.93-2.94 14.44-25.4 19.4-52.47 14.37-81.29-11.82-67.78-78.89-111.72-145.48-95.37C72.13 54.86 34 107.21 38.18 166.11c1.31 18.47 6.78 35.75 16.26 51.69.62 1.04 1.85 2.43 2.82 2.44 10.19.18 20.38.11 30.57.11V142.1c-1.42.85-2.41 1.65-3.55 2.08-3.03 1.13-5.7.48-7.58-2.24-1.79-2.59-1.51-5.22.48-7.58.79-.94 1.87-1.64 2.86-2.39 23.74-17.85 47.49-35.69 71.24-53.54 5.3-3.98 6.61-4.02 11.87-.07 23.85 17.91 47.7 35.84 71.54 53.77.89.67 1.83 1.34 2.55 2.19 2.14 2.51 2.27 5.32.35 7.9-1.95 2.61-4.69 3.15-7.69 1.82-.99-.44-1.88-1.09-3.18-1.85Zm-12.86 78.05v-4.46c0-26.5-.04-53 .06-79.5.01-2.89-.79-4.75-3.17-6.51-17.04-12.63-33.96-25.43-50.92-38.17-.86-.65-1.79-1.21-2.72-1.84-17.94 13.49-35.65 26.87-53.47 40.12-2.14 1.59-2.96 3.2-2.95 5.86.1 26.87.06 53.75.07 80.62 0 1.21.11 2.43.17 3.75h18.65v-4.27c0-17.12-.03-34.25.01-51.37.02-8.29 5-13.26 13.3-13.32 7.61-.06 15.22-.03 22.83 0 9.23.03 14.07 4.87 14.08 14.1.02 17 0 34 0 51v3.99h44.06Zm35.23 13.07H65.46c46.29 57.44 136.02 58.65 183.64 0Zm-116.71-13.14h24.58v-56.36h-24.58v56.36Z"/></svg>