<svg xmlns="http://www.w3.org/2000/svg" viewBox="0 0 478.75 478.75"><path d="M478.75 337.56c-.65.86-1.12 2.13-1.98 2.49-2.56 1.07-5.67 3.01-7.83 2.32-2.41-.77-4.33-3.86-5.85-6.31-.78-1.26-.26-3.34-.26-5.06V124.4c0-10.67-2.07-12.71-12.92-12.71h-82.84v162.05c0 1.56.07 3.12-.04 4.67-.38 5.46-3.28 8.62-7.85 8.68-4.59.06-7.63-3.09-8.05-8.46-.13-1.7-.06-3.43-.06-5.14V29.5c0-2.02-.01-4.05-.19-6.07-.37-4.37-3.04-6.66-7.17-7.35-1.52-.25-3.11-.15-4.66-.15H139.93c-10.02 0-12.21 2.22-12.21 12.45 0 81.95 0 163.91-.02 245.86 0 2.17-.04 4.38-.42 6.51-.72 4.1-3.44 6.26-7.5 6.3-4.06.04-6.83-2.07-7.62-6.15-.41-2.12-.44-4.33-.45-6.5-.02-52.04-.02-104.08-.02-156.12v-6.59h-5.05c-26.33 0-52.66-.01-78.99 0-9.23 0-11.7 2.47-11.7 11.58v201.46c-.05 5.77-1.9 9.03-5.84 9.94-4.94 1.14-7.99-1.38-10.08-5.53V115.01c4.96-15.1 15.93-19.82 31.04-19.47 24.91.57 49.85.15 74.77.15h5.86v-6.18c0-20.88.04-41.75-.02-62.63-.03-8.69 2.13-16.44 9.48-21.75 2.93-2.13 6.47-3.44 9.75-5.13h216.94c15.06 5.01 19.87 15.97 19.38 31.1-.63 19.61-.15 39.25-.15 58.88v5.71h6.33c26.17 0 52.34.05 78.52-.02 9.28-.02 17.24 2.67 22.59 10.65 1.78 2.65 2.85 5.78 4.24 8.69v222.55Z"/><path d="M332.88 478.75c-4.57-2.39-5.77-6.24-5.75-11.22.14-38.01.09-76.02.06-114.03 0-13.67-4.64-25.27-15.65-33.87-6.44-5.03-13.77-8.12-21.93-8.16-33.49-.16-66.99-.56-100.47.11-21.78.44-37.5 18.48-37.57 41.45-.11 38.16-.09 76.33.04 114.49.02 4.98-1.18 8.83-5.75 11.22h-4.68c-4.19-2.44-5.66-6.07-5.64-10.89.11-38.64-.04-77.27.1-115.91.1-28.79 19.27-51.29 47.64-56.01 5.15-.86 10.48-.64 16.13-.94-.37-.71-.53-1.28-.89-1.67-9.64-10.56-14.58-23.04-14.98-37.28-.07-2.5-.79-3.8-3.17-4.9-18.45-8.54-27.86-23.31-28.73-43.41-.46-10.57-.24-21.19-.05-31.78.17-9.45 6.51-16.19 15.77-16.21 38.48-.09 76.96-.33 115.43.28 21.16.34 39.41 17.26 43.5 38.45 4.06 21.04-7.04 43.2-26.26 51.84-3.4 1.53-4.86 3.21-4.98 7.12-.43 14.26-6.04 26.51-16.15 37.37 6.37.47 12.23.44 17.91 1.41 26.36 4.52 45.86 26.66 46.15 53.38.43 39.88.11 79.76.19 119.64 0 4.41-2.12 7.28-5.61 9.49h-4.68ZM199.75 215.7c-.13 1.17-.32 2.06-.32 2.96-.02 11.84-.09 23.68 0 35.52.2 23.34 17.29 39.35 37.89 40.97 19.1 1.5 39.93-14.91 41.24-34.11.81-11.79.56-23.65.76-35.48.05-3.22 0-6.43 0-9.86h-79.59Zm-16.29 19.27c0-9.14-.08-17.35.03-25.55.09-6.76 3-9.93 9.61-9.95 30.84-.1 61.69-.1 92.53 0 6.63.02 9.54 3.17 9.65 9.91.11 7.16 0 14.33.05 21.5 0 1.11.27 2.23.44 3.55 10.91-6.62 16.82-19.04 15.02-30.89-2.59-17.06-15.23-27.84-33.11-27.88-35.21-.09-70.41-.03-105.62-.02-1.36 0-2.72.16-3.76.23 0 12.86-.69 25.46.23 37.95.66 8.91 6.38 15.62 14.93 21.16ZM379.64 478.75c-9.33-3.37-12.86-10.09-12.67-19.87.36-18.68.09-37.38.11-56.06.01-14.04 5.44-19.57 19.34-19.77 1.37-.02 2.73-.16 4.52-.27 0-2.58-.07-4.88.01-7.18.45-13.72 9.15-23.17 22.82-24.25 6.03-.48 12.16-.48 18.19-.01 13.65 1.06 22.08 10.05 22.77 23.71.39 7.6.38 7.65 8.33 8.06 6.49.34 11.21 3.29 14.12 9.12.55 1.09 1.06 2.21 1.59 3.31v71.06c-2.36 5.74-6.42 9.79-12.16 12.16h-86.96Zm82.95-16.17v-63.15h-79.16v15.55h8.68c12.62 0 25.23-.07 37.85.05 5.46.05 8.61 3.02 8.71 7.7.1 4.59-3.08 7.74-8.35 8.19-1.24.11-2.49.04-3.74.04h-43.25v31.62h79.25Zm-23.8-79.83c0-2.19.04-4.17 0-6.15-.17-6.57-2.79-9.32-9.34-9.5-4.8-.13-9.62-.16-14.41.09-4.77.26-7.43 2.79-7.99 7.48-.3 2.56-.05 5.19-.05 8.07h31.8Z"/><path d="M181.4 478.75c-4.43-2.19-5.88-5.77-5.86-10.64.13-35.5.06-71.01.08-106.51 0-1.4-.05-2.84.28-4.18.85-3.52 3.07-5.71 6.78-6.06 3.87-.35 6.76 1.24 8.06 4.9.66 1.85.81 3.96.81 5.96.05 35.04-.02 70.07.09 105.11.02 4.9-1.25 8.81-5.56 11.42h-4.68ZM292.68 478.75c-4.31-2.61-5.58-6.52-5.56-11.42.11-35.04.05-70.07.09-105.11 0-1.99.15-4.1.81-5.96 1.3-3.66 4.2-5.26 8.06-4.9 3.72.34 5.94 2.53 6.79 6.05.32 1.34.28 2.79.28 4.18.01 35.5-.05 71.01.08 106.51.02 4.88-1.44 8.45-5.86 10.64h-4.68ZM295.05 63.76V47.79H178.11c-6.72-.05-10.55-2.95-10.52-7.95.04-5 3.91-7.97 10.61-7.97 40.83-.02 81.66-.02 122.49 0 7.56 0 10.51 2.94 10.56 10.44.06 9.04.06 18.08 0 27.12-.05 7.35-2.87 10.27-10.13 10.28-41.14.04-82.28.02-123.43 0-1.24 0-2.51-.03-3.72-.27-3.88-.78-6.01-3.46-6.25-7.16-.24-3.72 1.57-6.72 5.37-7.79 2.06-.58 4.3-.69 6.46-.69 36.47-.04 72.93-.03 109.4-.03h6.11ZM71.89 437.99c0 4.96.07 9.93-.02 14.9-.1 6.2-3.36 10-8.26 9.84-4.79-.16-7.57-3.71-7.7-9.81 0-.16-.01-.31 0-.47.77-8.51.47-15.29-9.78-19.58-9.24-3.87-13.19-13.64-14.11-23.86-.49-5.45 2.36-9.37 7-9.82 4.88-.47 7.97 2.38 8.79 8.1 1.61 11.27 10.41 17.76 20.3 14.95 7.55-2.14 12.16-9.04 11.44-17.11-.68-7.59-6.7-13.55-14.97-14.09-7.01-.46-13.55-1.96-19.25-6.2-9.49-7.06-14.1-16.66-13.09-28.35 1.08-12.66 7.81-21.83 19.62-26.74 3.09-1.28 4.37-2.68 4.12-6.04-.29-4.03-.17-8.1 0-12.15.2-4.93 3.38-8.21 7.75-8.28 4.1-.07 7.59 2.97 7.98 7.6.37 4.49.31 9.03.13 13.54-.11 2.75.82 3.95 3.45 5.03 12.32 5.09 19.26 14.35 20.21 27.77.4 5.6-2.12 8.96-6.68 9.5-4.87.58-8.34-2.15-8.98-7.87-.69-6.2-3.16-11.01-8.77-13.93-5.78-3.01-12.61-2.27-17.44 2.01-5.14 4.55-6.91 10.22-4.93 16.88 1.85 6.2 7.39 10.72 14.18 11.05 10.89.52 20.06 4.34 26.57 13.31 12.39 17.07 5.36 40.73-14.27 48.42-1.01.39-1.99.84-3.27 1.37ZM414.86 191.58c7.64 0 15.27-.08 22.91.03 5.88.08 8.98 3.03 9.08 8.92.16 9.97.17 19.95 0 29.92-.1 5.84-3.28 8.86-9.17 8.89-15.11.09-30.23.09-45.34 0-6.21-.03-9.13-2.94-9.22-9.22-.14-9.81-.14-19.63 0-29.45.09-6.28 2.97-9 9.31-9.07 7.48-.08 14.96-.02 22.44-.02Zm15.95 16.21h-31.43v15.29h31.43v-15.29ZM63.83 127.7c7.32 0 14.65-.09 21.97.02 7.17.11 9.81 2.78 9.87 9.99.08 9.35.1 18.7 0 28.05-.07 6.81-2.91 9.76-9.65 9.81-14.8.11-29.6.11-44.41 0-6.69-.05-9.67-3.14-9.73-9.83-.09-9.5-.11-19.01 0-28.51.08-6.45 2.99-9.37 9.51-9.49 7.48-.15 14.96-.03 22.44-.04Zm-15.7 16.22v15.48h31.25v-15.48H48.13ZM48.03 207.52v15.93h5.21c11.37 0 22.73-.08 34.1.06 4.99.07 8.15 3.27 8.23 7.73.08 4.48-3.01 7.99-7.91 8.04-15.88.17-31.76.17-47.64 0-4.97-.05-7.98-3.27-8.08-8.49-.19-10.27-.21-20.55.01-30.82.12-5.36 3.29-8.3 8.66-8.34 15.41-.1 30.83-.1 46.24-.01 5.41.03 8.61 3.04 8.7 7.7.09 4.78-3.24 8.08-8.82 8.15-11.05.15-22.11.05-33.16.05h-5.54ZM399.28 143.87v15.78h19.25c6.54 0 13.08-.1 19.62.06 5.27.13 8.66 3.38 8.64 7.88-.02 4.2-3.32 7.82-8.23 7.89-15.72.21-31.46.23-47.18 0-5.39-.08-8.17-3.23-8.26-8.73-.16-10.12-.17-20.25 0-30.36.1-5.7 2.97-8.56 8.8-8.62 15.26-.16 30.52-.14 45.78-.02 5.66.05 9.12 3.34 9.08 7.96-.05 4.58-3.53 7.83-9.19 7.91-11.37.16-22.73.05-34.1.07-1.23 0-2.47.1-4.22.18ZM215.4 119.28c0-4.83-.16-9.66.05-14.48.26-5.95 3.09-8.91 9.04-9.03 9.96-.21 19.93-.21 29.9.01 5.91.13 8.8 3.13 8.92 9.13.2 9.81.19 19.62 0 29.43-.12 6.21-3.07 9.16-9.27 9.28-9.81.19-19.62.2-29.43 0-6.15-.13-8.97-3.13-9.18-9.38-.17-4.98-.03-9.97-.03-14.95Zm16.24 8.07h15.32v-15.32h-15.32v15.32ZM199.41 119.74c0 4.98.1 9.97-.03 14.95-.15 5.57-2.73 8.68-8.13 8.84-10.42.29-20.87.28-31.29.01-5.41-.14-8.25-3.26-8.34-8.72a853.52 853.52 0 0 1 0-30.36c.1-5.42 3-8.49 8.44-8.63 10.27-.26 20.56-.26 30.83 0 5.69.14 8.25 3.21 8.51 8.98.01.31.01.62.01.93v14.02Zm-31.78 7.55h15.54v-15.22h-15.54v15.22ZM295.56 111.68v16.01c5.77 0 11.46-.02 17.15.01 2.48.02 4.99-.04 7.45.29 4.06.53 7.07 3.73 6.89 7.52-.2 4.13-2.24 7.21-6.63 7.74-3.38.41-6.81.39-10.23.41-6.84.06-13.69.08-20.53 0-7.46-.09-10.24-2.8-10.29-10.08-.07-9.33-.08-18.67 0-28 .06-6.85 2.78-9.74 9.56-9.85 9.64-.15 19.29-.09 28.93 0 3.59.03 7.23.99 8.25 4.77.65 2.39.55 6.07-.89 7.67-1.78 1.98-5.24 3.18-8.06 3.36-7.09.46-14.24.15-21.61.15ZM63.93 271.23c-7.62 0-15.24.07-22.86-.02-5.49-.06-9.13-3.33-9.12-7.92.01-4.57 3.64-7.92 9.15-7.95 15.08-.1 30.17-.09 45.25 0 5.9.03 9.33 3.27 9.19 8.22-.13 4.78-3.43 7.6-9.23 7.65-7.46.07-14.93.02-22.39.02ZM414.97 271.23c-7.46 0-14.93.05-22.39-.02-6-.05-9.44-3.05-9.4-7.98.04-4.89 3.51-7.88 9.54-7.91 14.77-.07 29.55-.06 44.32 0 5.94.02 9.64 3.1 9.76 7.83.12 4.86-3.72 8.03-9.91 8.07-7.31.05-14.62.01-21.93.01ZM263.86 352.73c-1.55 3.84-3.24 7.63-4.6 11.53-.91 2.63-2.18 5.51-1.88 8.12 1.39 11.9 3.1 23.77 5.06 35.59.97 5.86.32 10.89-3.39 15.79-4.41 5.82-8.14 12.15-12.28 18.19-4.45 6.49-10.51 6.47-14.96-.06-4.73-6.95-9.61-13.82-13.87-21.05-1.52-2.58-2.31-6.19-1.96-9.16 1.47-12.67 3.47-25.28 5.33-37.91.53-3.59.41-6.64-1.83-10.05-2.19-3.34-3.19-7.72-3.79-11.77-.67-4.53 2.5-8.06 6.67-8.66 4.11-.59 7.53 2.06 8.76 6.57.56 2.07.89 4.72 2.33 5.9 1.96 1.62 5.06 3.15 7.32 2.75 2.24-.4 4.19-3.12 5.95-5.09.73-.82.64-2.36.95-3.56 1.21-4.6 4.63-7.16 8.74-6.56 4.36.63 6.99 4.21 7.45 9.45Zm-22.22 22.8c-3.35-1.24-4.62-.23-5.04 2.86-1.19 8.92-1.86 18.01-4.14 26.67-2.24 8.47 2.45 13.25 7.44 19.52 2.61-4.72 7-8.95 6.76-12.91-.73-12.17-3.23-24.23-5.02-36.13Z"/></svg>