<svg xmlns="http://www.w3.org/2000/svg" viewBox="0 0 372.2 371.5"><path d="M95 171c12-24 32-37 59-39a48 48 0 1 1 64 0c27 2 47 15 60 39l24-21c9-7 20-8 29-3 13 9 15 27 4 38l-42 36c-16 12-39 8-50-9l-3-4v28l2 3 15 15-7 13 12 3 2 3v43l-14 4 6 10v4l-31 31-13-8-3 14h-5l-38 1c-2 0-3-1-3-3l-3-12-13 8-16-16-16-16 7-13-14-4v-42c0-2 1-3 3-4l12-3-8-13 15-14 2-6v-26l-3 4a35 35 0 0 1-51 8l-40-34c-10-9-11-24-2-34 8-10 23-11 33-3l23 19 3 3Zm35 159 19 19h1l9-6c4-2 9 0 11 5l3 11h26l1-1 2-10c2-5 7-7 11-5l10 6 19-19-6-9c-2-5 0-10 4-11l12-3v-27l-12-3c-4-1-6-6-4-10l6-10-19-19-10 5c-4 3-9 1-11-4l-3-11h-26v1l-3 11c-1 4-7 6-11 4l-10-6-19 19 6 9c3 5 1 10-4 11l-12 3v27l6 1 6 2c4 1 7 7 4 11l-6 9Zm79-114 3 14 10-6c2-1 4-2 6 1v-63h12l1 15c1 5 4 10 6 14l4 11c6 14 24 18 36 8l38-33c6-5 7-12 2-17-4-5-12-6-17-1l-16 13-22 19c-7-24-20-41-46-47-4 25-12 49-24 72h7Zm-109-25-37-31c-6-6-14-5-18 0-5 5-4 12 2 18l38 32c4 4 9 5 14 6 10 0 18-5 23-15l10-24v-15h12v61l6 1 10 6 2-7q1-7 7-8c-4-11-10-22-13-34l-10-36c-19 4-33 14-41 32l-5 14Zm86-59c20 0 36-16 36-36a36 36 0 0 0-72 0c0 20 16 36 36 36Zm2 12h-4l-8 55v2l7 13c1 2 5 3 6 1 4-8 9-14 6-24l-1-10-6-37Zm-22 32h1l5-32h-14l8 32Zm34-32 5 32h1l8-32h-14Z"/><path d="M240 66a66 66 0 0 1 132 0 66 66 0 0 1-132 0Zm66-54a54 54 0 1 0 54 54c0-30-24-54-54-54ZM60 108v10c0 7-4 12-10 13-6 2-12-1-15-6l-6-11c-1-5-4-7-9-6l-7-1c-7-2-13-9-13-16V41c0-9 8-17 17-17h86c9 0 17 8 17 17v49c0 10-8 18-18 18H60ZM48 96h53c5 0 7-2 7-7V43c0-5-2-7-7-7H19c-5 0-7 2-7 7v46c0 5 2 7 7 7h12c2 0 3 0 4 2l9 19 3 3 1-4V96ZM324 264h29c12 0 19 7 19 19v45c0 12-7 19-19 19h-58c-11 0-19-7-19-19v-45c0-12 8-19 19-19h29Zm0 12h-28c-6 0-8 2-8 7v45c0 5 2 7 8 7h57c5 0 7-2 7-7v-45c0-5-2-7-7-7h-29ZM60 323H48v-19l2-3 12-12c4-4 5-9 3-14-3-5-9-7-15-5-5 1-8 5-8 11v7H31c-3-14 4-26 16-30 13-3 26 3 30 15a22 22 0 0 1-5 23c-3 4-9 7-11 12-2 4-1 10-1 15ZM54 371c-10 0-18-8-18-18 0-9 8-17 18-17 10-1 18 8 18 18 0 9-8 17-18 17Zm6-17c0-4-3-6-6-6-3-1-6 2-6 5 0 4 3 6 6 6 3 1 6-2 6-5ZM186 252c23 0 42 18 42 41a42 42 0 0 1-84 1c0-23 19-42 42-42Zm-30 41a30 30 0 0 0 60 1 30 30 0 0 0-60-1Z"/><path d="M318 84v-6c0-4-2-6-6-6h-12c-10 0-18-8-18-18V36h18V24h12v12c6 0 11 2 14 7l5 11h-13c-1-5-4-6-9-6h-15v6c1 4 3 6 7 6h11c10 0 18 8 18 18v18h-18v12h-12V96c-12-2-18-8-18-18h12c1 5 5 6 10 6h14ZM96 60H24V48h72v12ZM24 84V72h48v12H24ZM84 72h12v12H84V72ZM351 298l-22 22-11-12-13 14-8-9 22-21 10 11 14-14 8 9Z"/></svg>