<svg xmlns="http://www.w3.org/2000/svg" viewBox="0 0 384 383.21"><path d="M0 98.77c1.45-7.18 2.44-14.5 4.43-21.53C16.28 35.4 53.56 4.62 96.95.56c2.86-.27 5.73-.5 8.6-.56 7.25-.15 10.5 2 13.19 8.66 7.07 17.56 14.11 35.14 21.16 52.71 8.53 21.27 17.06 42.54 25.58 63.82 3.43 8.55 1.06 14.12-7.52 17.55-15.74 6.3-31.47 12.66-47.29 18.76-2.91 1.12-3.71 2.51-3.35 5.45 5.44 43.99 27.78 76.36 67.06 96.96 12.96 6.8 26.97 10.33 41.47 12.11 3.5.43 5.22-.38 6.57-3.91 5.96-15.59 12.3-31.03 18.51-46.52 3.46-8.63 8.91-11.01 17.52-7.58 38.81 15.47 77.61 30.99 116.45 46.4 4.35 1.73 7.37 4.47 9.1 8.74v11.23c-.23.96-.56 1.91-.66 2.88-4.75 44.22-36.2 80.9-79.31 92.22-6.24 1.64-12.68 2.48-19.03 3.7h-22.5c-1.34-.22-2.68-.46-4.03-.65-13.83-1.95-27.84-3.02-41.45-5.98-60.47-13.14-110.84-43.57-151.03-90.42-35.86-41.78-56.96-90.28-63.83-144.9-.81-6.41-1.44-12.84-2.16-19.26v-23.2ZM258.61 242.3c-.62 1.45-1.11 2.57-1.57 3.7-5.98 14.91-11.94 29.83-17.94 44.73-2.3 5.7-5.93 8.3-11.65 8.25-19.85-.16-39.13-3.65-57.05-12.22C115.86 260.7 87.08 217.4 84.42 157c-.29-6.49 2.27-10.06 8.51-12.54 14.71-5.86 29.43-11.72 44.14-17.59 1.34-.53 2.63-1.18 4.06-1.83-.54-1.37-.94-2.4-1.35-3.43-12.18-30.41-24.35-60.82-36.53-91.23q-3.19-7.96-11.62-6.47c-35.74 6.3-64.71 37.31-68.46 73.36-1.68 16.13-.35 32.17 2.25 48.06 12.88 78.83 54.03 138.83 122.1 180.32 36.2 22.06 76.02 32.83 118.32 34.98 21.19 1.08 41.07-2.48 58.73-14.85 20.16-14.11 32-33.45 36.12-57.64.62-3.67-.24-5.49-3.96-6.81-8.69-3.09-17.17-6.75-25.75-10.17-23.97-9.56-47.94-19.12-72.37-28.86Z"/></svg>