<svg xmlns="http://www.w3.org/2000/svg" viewBox="0 0 373.1 371.8"><path d="m152 307 93-94 24 24 64-64-22-21 62-9-8 60-22-21-72 72-24-24-4 3-87 87c-2 2-3 4-2 6l1 7c0 6 1 11 4 16l4 10h29v-59h36v59h12v-83h36v83h12V252h36v107h12V228h36v144H118c-12 0-20-8-14-21 3-6 2-11 1-17l-7-35-1-2h-1v12c0 5-1 9-4 12l-2 2-5 21 1 3 4 12c0 7-5 12-12 13H42c-7-1-12-6-12-13 0-4 1-8 4-12s4-9 5-14l3-9H14c-9 0-14-5-14-14v-44c0-10 5-14 14-14h13c-4-8-3-16-3-25v-58c-1-23 13-46 42-51l12-3v-9l-2-2-12-8A53 53 0 0 1 95 0h34c13-1 25 10 20 26-2 6-4 10-9 14-2 2-2 3-2 5v30c0 11-4 20-14 26-2 2-2 3-1 5 0 7 4 10 11 12 14 3 27 8 41 12 2 1 4 1 6-1l20-20c2-2 3-5 2-8-2-3-4-5-8-5h-15V60h14c4 0 7-1 9-5 1-4 0-7-3-10l-9-9 25-25 10 9c2 3 5 4 9 3 4-2 5-4 5-8V0h36v15c0 3 1 6 5 8 4 1 7 0 9-3l10-9 25 25-9 10c-3 2-4 5-3 9 2 4 5 5 9 5h14v36h-14c-4 0-7 1-8 5-2 3-1 7 2 9l9 10-25 25-10-9c-2-3-5-4-9-3-4 2-5 5-5 9v14h-36c-1-7 1-13-1-19l-2-2-2 4-30 31c-8 8-18 11-29 9l-31-4c-3 44 3 88 7 132Zm-20-91v-60h12v7l33 4c8 2 14 0 19-5l21-22 2-1-16-16-19 19c-2 2-3 3-6 2l-16-5-23-7-11 21-16-11c-3-2-4-2-6 0l-16 17-21-26c-2-2-4-3-6-2-16 4-27 18-27 34v63h24v-60h12v48h60Zm11 120-10-108H73l-3 24c8 1 18-4 25 6 4-8 9-14 16-17l6 10-4 3c-6 5-10 11-8 20l5 21 8 41h25ZM252 12c1 10-3 18-12 22s-18 1-24-7l-8 9c14 18 8 33-16 36v12c11-1 18 4 22 14l6-2c-10-23 1-43 14-52a42 42 0 0 1 63 51c-9 19-26 27-51 24-1 4-1 7 2 10 3 4 4 10 5 15h11c0-10 3-18 13-22 9-3 17 0 23 6l9-8c-8-7-10-15-6-24s11-13 21-12V72c-24-3-30-17-16-36l-8-9c-6 8-14 11-24 7-9-4-13-12-12-22h-12ZM84 312v-48H12v48h72ZM78 91V56c0-13 7-20 20-20h22c9 0 16-6 18-15 1-6-2-9-8-9H95l-13 2c-16 5-27 20-28 36-1 18 8 31 24 41Zm48-43H97c-5 0-7 2-7 7a6314 6314 0 0 0 3 62c3 3 7 4 11 6l3 1c3-2 6-4 6-7l-3-10-7 1-2-12 11-2c8-2 14-8 14-16V48Zm132 60a30 30 0 1 0-30-30c0 16 13 30 30 30Zm102 251V240h-12v119h12Zm-60-95v95h12v-95h-12Zm-36 95v-71h-12v71h12Zm-48 0v-47h-12v47h12Zm-174 0h36c-1-7-5-11-12-11H54c-7 0-11 4-12 11Zm108 0c-1-7-5-11-12-11h-12c-7 0-11 5-12 11h36Zm-99-23h24l3-12H54l-3 12Zm162-223 16 16c3-3 6-7 5-13-1-4-4-7-9-8s-9 2-12 5Zm143 65 3-21-21 3 18 18ZM36 240c1 7 6 12 12 12 7 0 12-6 12-12H36Zm44-113 11 15 3-5 4-3c-10-6-14-8-18-7Zm44 8 1-3 2-3q-5-3-9 2l6 4Z"/><path d="M216 180v-12h12v12h-12ZM252 168v12h-12v-12h12ZM264 168h12v12h-12v-12ZM300 180h-12v-12h12v12Z"/></svg>