<svg xmlns="http://www.w3.org/2000/svg" viewBox="0 0 477.89 477.45"><path d="M477.89 100.34v377.11H5.67C1.01 474.87 0 470.78 0 465.7c.1-103.76.07-207.51.07-311.27 0-1.09-.05-2.18.03-3.27.35-4.96 2.89-7.69 7.83-8.22 2.56-.27 5.16-.27 8.05-.4 0-7.23.13-14.05-.05-20.87-.11-4.2 1.36-7.42 4.32-10.35 11.62-11.47 23.04-23.15 34.69-34.6 16.61-16.33 9.53-13.31 32.15-13.53 2.7-.03 4.15-.83 5.35-3.29 5.98-12.29 12.28-24.42 18.18-36.75 2.11-4.4 5.07-7.09 9.72-8.57 13.61-4.33 27.19-8.77 40.66-13.52 4.79-1.69 8.81-1.35 13.32.93 39.25 19.78 78.56 39.41 117.93 58.95 2.65 1.32 5.88 2.09 8.84 2.1 44.17.13 88.34.09 132.51.09 10.31 0 12.49 2.22 12.5 12.7v19.15c7.09 0 13.47.15 19.83-.05 4.97-.16 9.18.93 11.96 5.41Zm-16.09 11.04c-1.2-.15-2.25-.39-3.3-.39-64.08-.02-128.15-.05-192.23.02-9.8.01-14.82 3.88-17.97 13.16-2.79 8.24-5.53 16.49-8.28 24.74-3.01 9.03-4.26 9.96-13.62 9.96H16.33v302.37H461.8V111.38ZM429.92 79.4H79.64v5.38c0 10.58.04 21.16-.01 31.73-.04 7.73-2.62 10.36-10.38 10.41-10.73.08-21.46 0-32.19.04-1.63 0-3.26.19-4.88.3v15.66h172.84c5.6 0 11.2-.14 16.79.06 2.68.1 3.85-.93 4.61-3.4 1.91-6.24 4.06-12.4 6.11-18.59 6.14-18.5 16.52-26 36.03-26h161.36V79.41ZM170.87 18.2c-3.65 7.33-7.03 14.13-10.42 20.92-4.49 9-7.41 9.94-16.54 5.38-6.87-3.44-13.76-6.85-20.84-10.38-4.87 9.77-9.47 19.01-14.26 28.62h149.81c.04-.22.09-.44.13-.66-29.13-14.55-58.27-29.09-87.87-43.88ZM63.32 110.63V92.27c-6.09 6-12.3 12.11-18.65 18.36h18.65Zm77.07-85.8c2.99 1.5 5.02 2.51 7.43 3.71 1.13-2.31 2.14-4.36 3.6-7.34-4.02 1.32-6.9 2.27-11.03 3.62Z"/><path d="M238.65 397.83h-90.51c-10.65 0-12.71-2.1-12.71-12.92 0-42.15.07-84.31-.09-126.46-.02-5.7 1.92-9.56 6.5-12.96 30.07-22.35 59.99-44.9 89.97-67.37 6.03-4.52 8.37-4.49 14.52.12 29.98 22.48 59.9 45.02 89.97 67.38 4.42 3.29 6.34 7.05 6.33 12.57-.14 42.62-.08 85.24-.08 127.86 0 9.36-2.45 11.77-11.99 11.77h-91.91Zm40.23-16.26h47.48c.11-1.02.27-1.77.27-2.51.01-25.97.07-51.94-.12-77.9-.01-1.74-1.49-4.01-2.97-5.13-27.02-20.44-54.17-40.71-81.19-61.15-2.61-1.97-4.2-1.9-6.76.04-26.9 20.34-53.88 40.57-80.94 60.71-2.55 1.9-3.4 3.89-3.39 6.97.11 24.72.06 49.45.06 74.17v4.79h47.77v-5.36c0-15.86-.02-31.72 0-47.58.02-10.92 3.02-20.73 10.36-29.14 9.92-11.38 26.7-15.91 42.1-11.01 14.32 4.56 25.98 18.22 26.57 32.78.74 18.16.53 36.36.73 54.54.02 1.83 0 3.67 0 5.78Zm-15.94.03c0-7.42.05-14.25-.01-21.07-.11-12.58.28-25.2-.6-37.73-.9-12.93-13.69-22.21-26.46-20.27-12.71 1.93-20.62 11.27-20.77 25.14-.19 16.94-.05 33.88-.02 50.82 0 1.02.33 2.04.51 3.11h47.35Zm63.71-103.31c0-6.15-.16-11.11.06-16.06.12-2.78-.81-4.49-3.06-6.16-23.69-17.62-47.28-35.37-70.9-53.08-4.57-3.43-9.14-6.86-13.76-10.32-28.78 21.58-57.25 42.92-85.67 64.31-.88.66-1.85 1.89-1.88 2.88-.18 5.81-.09 11.63-.09 18.38 2.68-1.98 4.52-3.33 6.35-4.7 24.74-18.55 49.48-37.11 74.22-55.65 5.83-4.37 8.3-4.37 14.11-.02 21.02 15.74 42.02 31.51 63.03 47.26 5.56 4.17 11.13 8.33 17.59 13.17ZM135.69 413.99h206.6v15.34h-206.6v-15.34ZM382.66 142.95v-15.66h63.09v63.05h-15.5v-47.39h-47.6Z"/></svg>