<svg xmlns="http://www.w3.org/2000/svg" viewBox="0 0 408.77 352.22"><path d="M0 163.16c1.5-.46 3.05-.81 4.51-1.39C137.8 108.42 271.08 55.05 404.36 1.69c1.22-.49 2.45-.94 4.41-1.69-27.4 117.49-54.66 234.38-82.14 352.22-37.98-30.12-75.53-59.89-113.53-90.03l-66.02 65.9c-3.2-7.93-6.33-15.66-9.43-23.39-13.35-33.3-26.65-66.61-40.11-99.87-.69-1.7-2.43-3.53-4.12-4.2-30.09-11.83-60.24-23.49-90.4-35.17-.96-.37-2.02-.48-3.03-.71v-1.6Zm193.98 53.29c39.34 31.21 78.42 62.21 117.92 93.54 19.85-85.15 39.57-169.73 59.3-254.31l-.63-.45c-58.75 53.64-117.5 107.28-176.59 161.22Zm-44.77 52.62c.6-2.11.98-3.35 1.31-4.59 4.38-16.42 8.84-32.82 13.07-49.28.84-3.26 2.38-5.67 4.84-7.91 39.77-36.21 79.47-72.48 119.19-108.74.98-.89 2.03-1.71 3.04-2.57l-.82-.88-169.38 102.24c9.59 23.93 19.01 47.42 28.75 71.72ZM255.29 88.02l-.24-.78c-63.28 25.35-126.56 50.69-190.35 76.24 1.7.76 2.85 1.34 4.05 1.81 10.67 4.13 21.38 8.15 31.98 12.43 2.61 1.06 4.52.93 6.95-.54 31.39-19.07 62.86-38.02 94.3-57l53.31-32.16Zm-80.2 177.47c6.19-6.18 12.4-12.37 18.68-18.65-3.42-2.7-7.19-5.68-11.37-8.98-2.59 9.76-4.99 18.82-7.32 27.62Z"/></svg>