<svg xmlns="http://www.w3.org/2000/svg" viewBox="0 0 409.6 408.62"><path d="M213.6 408.62h-16.8c-6.61-.65-13.26-1.1-19.84-2-26.55-3.62-51.47-12.05-74.79-25.3-1.79-1.02-4.62-1.25-6.63-.68-22.51 6.44-44.96 13.08-67.41 19.74-8.88 2.64-17.69 5.48-26.54 8.23-.53-.53-1.07-1.06-1.6-1.6.51-1.18 1.16-2.32 1.52-3.55 8.8-29.67 17.51-59.37 26.42-89.01 1.05-3.5.6-6.2-1.19-9.33-12.02-20.96-20.05-43.38-23.64-67.29-1.32-8.76-2.08-17.62-3.1-26.45v-16.77c.85-7.37 1.42-14.79 2.6-22.1 6.25-38.59 21.72-73.1 47.79-102.32C96.77 18.23 155.13-4.97 224.57.88c33.48 2.82 64.46 14.06 92.35 32.85 48.5 32.68 78.69 77.66 89.49 135.26 1.44 7.67 2.15 15.48 3.2 23.22v23.96c-.25 1.29-.55 2.57-.73 3.87-1.2 8.54-1.83 17.2-3.64 25.61-9.09 42.13-29.42 78.06-61.05 107.43-31.6 29.34-68.81 47.2-111.6 53.29-6.31.9-12.66 1.51-18.99 2.25Zm-177.93-35.7c2.03-.49 3.42-.76 4.77-1.15 19.27-5.67 38.56-11.3 57.79-17.11 3.03-.92 5.29-.72 8.1 1.01 49.54 30.62 102.13 37.23 157.43 18.69 84.97-28.48 136.31-118.02 118.35-205.67C362.12 71.17 266.52 7.7 168.93 27.16 87.32 43.44 26.88 114.68 24.28 198.03c-1.19 38 8.52 73.15 29.2 105.17 1.35 2.09 1.63 3.88.91 6.26-5.3 17.55-10.47 35.14-15.67 52.72-1 3.38-1.93 6.78-3.05 10.75Z"/><path d="M272.83 313.98c-53.76-2.46-99.01-23.35-133.85-64.6-24.58-29.1-38.48-63.12-41.56-101.31-1.16-14.35-.21-28.42 4.83-42.04 4.59-12.4 13.59-21.36 24.09-28.52 9.79-6.68 22.13-4.63 31.1 4.1 12.6 12.27 25.08 24.66 37.34 37.26 10.72 11.03 10.53 25.66-.08 36.79-2.85 2.99-5.91 5.77-8.73 8.79-6.08 6.48-6.38 14.73-.33 21.16 12.5 13.29 25.14 26.45 37.93 39.47 6.32 6.44 16.42 6.32 23.1.14 3.81-3.53 7.3-7.42 11.27-10.74 9.58-8.02 23.1-8.44 32.18.07 14.28 13.38 27.82 27.54 41.67 41.37.09.09.16.21.24.32 7.47 9.33 7.14 22.27-.17 31.7-14.99 19.35-35.02 26.9-59.04 26.05Zm-.61-23.91c15.23.29 29.21-2.26 39.34-15.26 1.95-2.51 1.99-3.69-.15-5.8a3792.866 3792.866 0 0 1-34.78-34.7c-2.02-2.04-3.39-1.85-5.24.12-2.92 3.1-5.93 6.13-9.1 8.97-15.48 13.89-40.05 13.9-54.9-.68-13.86-13.61-27.24-27.74-40.4-42.04-10.86-11.8-12.96-29.61-4.83-43.4 3.77-6.4 9.5-11.67 14.49-17.33 1.5-1.71 2.5-2.89.44-4.93-12.02-11.9-23.93-23.9-35.97-35.77-.7-.69-2.84-1.13-3.29-.68-5.41 5.4-11.76 10.02-14.04 17.97-4.5 15.68-3.42 31.39-.12 46.97 8.61 40.7 29.33 73.84 63.56 97.93 25.41 17.88 53.8 27.58 84.98 28.62Z"/></svg>